<svg xmlns="http://www.w3.org/2000/svg" width="32" height="32" viewBox="0 0 32 32">
  <defs>
    <style>
      .cls-1 {
        fill: #fff;
        fill-rule: evenodd;
      }
    </style>
  </defs>
  <path id="ВК" class="cls-1" d="M186.177,2355.23a15.985,15.985,0,1,1-16,15.99A16,16,0,0,1,186.177,2355.23Zm6.087,18.6a3.194,3.194,0,0,0-.773-2.25,3.742,3.742,0,0,0-2.056-1.1v-0.08a2.969,2.969,0,0,0,1.4-1.16,3.261,3.261,0,0,0,.509-1.8,3.172,3.172,0,0,0-.369-1.55,2.671,2.671,0,0,0-1.113-1.07,4.44,4.44,0,0,0-1.475-.49,16.892,16.892,0,0,0-2.314-.11h-4.9v13.85h5.551a9.214,9.214,0,0,0,2.378-.26,5.113,5.113,0,0,0,1.719-.87,3.8,3.8,0,0,0,1.053-1.3,4,4,0,0,0,.391-1.81h0Zm-4.46-5.7a1.61,1.61,0,0,0-.172-0.69,1.069,1.069,0,0,0-.537-0.51,2.2,2.2,0,0,0-.814-0.16c-0.314-.01-0.782-0.01-1.4-0.01h-0.242v2.93h0.439c0.594,0,1.014-.01,1.253-0.02a1.936,1.936,0,0,0,.74-0.2,1.141,1.141,0,0,0,.575-0.53,1.967,1.967,0,0,0,.16-0.81h0Zm0.873,5.63a1.663,1.663,0,0,0-.26-1,1.515,1.515,0,0,0-.782-0.55,2.726,2.726,0,0,0-.871-0.14c-0.369-.01-0.865-0.01-1.484-0.01h-0.643v3.47h0.188c0.906,0,1.532-.01,1.879-0.02a3,3,0,0,0,1.062-.25,1.418,1.418,0,0,0,.693-0.6A1.833,1.833,0,0,0,188.677,2373.76Z" transform="translate(-170.188 -2355.22)"/>
</svg>
