<svg xmlns="http://www.w3.org/2000/svg" width="32.001" height="32" viewBox="0 0 32.001 32">
  <defs>
    <style>
      .cls-1 {
        fill: #fff;
        fill-rule: evenodd;
      }
    </style>
  </defs>
  <path id="Инста" class="cls-1" d="M88.177,2355.23a15.985,15.985,0,1,1-16,15.99A16,16,0,0,1,88.177,2355.23Zm6.4,24.05a1.773,1.773,0,0,0,1.78-1.77v-12.55a1.773,1.773,0,0,0-1.78-1.77H82a1.773,1.773,0,0,0-1.78,1.77v12.55a1.773,1.773,0,0,0,1.78,1.77H94.574Zm-1.4-9.27a5.019,5.019,0,1,1-9.719,0H82.045v6.92a0.623,0.623,0,0,0,.623.62H93.955a0.623,0.623,0,0,0,.624-0.62v-6.92H93.171Zm-4.859-1.63a2.9,2.9,0,1,1,0,5.78A2.89,2.89,0,1,1,88.313,2368.38Zm3.772-3.38h1.9a0.623,0.623,0,0,1,.624.62v1.9a0.623,0.623,0,0,1-.624.62h-1.9a0.623,0.623,0,0,1-.624-0.62v-1.9A0.623,0.623,0,0,1,92.084,2365Z" transform="translate(-72.188 -2355.22)"/>
</svg>
