<svg xmlns="http://www.w3.org/2000/svg" width="61" height="61" viewBox="0 0 61 61">
  <defs>
    <style>
      .cls-1 {
        fill: #fff;
        opacity: 0.6;
      }

      .cls-2 {
        fill-rule: evenodd;
        opacity: 0.8;
      }
    </style>
  </defs>
  <circle id="Эллипс_1" data-name="Эллипс 1" class="cls-1" cx="30.5" cy="30.5" r="30.5"/>
  <path id="ХИТ" class="cls-2" d="M9.836,43.75l4.312-8.982q0.246-.527.82-1.934,0.387,0.932.75,1.723l4.324,9.193h2.813l-6.5-13.623,6.035-12.146H19.914l-3.457,6.838q-0.785,1.529-1.359,2.936-0.41-1.107-1.383-3.164L10.6,17.981H7.891L13.75,30.32,7.105,43.75h2.73Zm14.051,0H26.16l9.152-20.355V43.75h2.063V17.981H35.09L25.949,38.389V17.981H23.887V43.75Zm23.609,0V21.022H53.18V17.981H39.563v3.041h5.66V43.75H47.5Z"/>
</svg>
