<svg xmlns="http://www.w3.org/2000/svg" width="32" height="32" viewBox="0 0 32 32">
  <defs>
    <style>
      .cls-1 {
        fill: #fff;
        fill-rule: evenodd;
      }
    </style>
  </defs>
  <path id="Твитер" class="cls-1" d="M38.74,2355.17a15.985,15.985,0,1,1-16,15.98A15.989,15.989,0,0,1,38.74,2355.17Zm9.32,11.01a7.285,7.285,0,0,1-2.134.58,3.673,3.673,0,0,0,1.633-2.05,7.185,7.185,0,0,1-2.359.9,3.719,3.719,0,0,0-6.33,3.39,10.59,10.59,0,0,1-7.657-3.88,3.707,3.707,0,0,0,1.15,4.95,3.681,3.681,0,0,1-1.683-.46c0,0.02,0,.03,0,0.05a3.729,3.729,0,0,0,2.98,3.64,3.936,3.936,0,0,1-.979.13,4.012,4.012,0,0,1-.7-0.07,3.726,3.726,0,0,0,3.47,2.58,7.484,7.484,0,0,1-4.614,1.58,6.5,6.5,0,0,1-.886-0.05,10.564,10.564,0,0,0,16.264-8.89q0-.24-0.011-0.48A7.557,7.557,0,0,0,48.059,2366.18Z" transform="translate(-22.75 -2355.16)"/>
</svg>
